<mxfile host="app.diagrams.net" modified="2024-03-24T18:40:12.028Z" agent="Mozilla/5.0 (Windows NT 10.0; Win64; x64) AppleWebKit/537.36 (KHTML, like Gecko) Chrome/123.0.0.0 Safari/537.36" etag="GheueqImZLIU3rlxPm0Q" version="24.1.0" type="google">
  <diagram name="Page-1" id="hcxXQLPx8KT62YF9E263">
    <mxGraphModel grid="1" page="1" gridSize="10" guides="1" tooltips="1" connect="1" arrows="1" fold="1" pageScale="1" pageWidth="1169" pageHeight="1654" math="0" shadow="0">
      <root>
        <mxCell id="0" />
        <mxCell id="1" parent="0" />
        <mxCell id="dWxuiOdJAfEmvHjb0iZS-6" value="Players" style="swimlane;whiteSpace=wrap;html=1;" vertex="1" parent="1">
          <mxGeometry x="434" y="310" width="166" height="150" as="geometry" />
        </mxCell>
        <mxCell id="dWxuiOdJAfEmvHjb0iZS-49" value="" style="endArrow=none;dashed=1;html=1;rounded=0;" edge="1" parent="dWxuiOdJAfEmvHjb0iZS-6">
          <mxGeometry width="50" height="50" relative="1" as="geometry">
            <mxPoint x="10.5" y="65" as="sourcePoint" />
            <mxPoint x="55.5" y="65" as="targetPoint" />
          </mxGeometry>
        </mxCell>
        <mxCell id="HPNoxLTKmxxGLBRABfVi-4" value="Team_ID&lt;div&gt;&lt;u&gt;&lt;br&gt;&lt;/u&gt;&lt;/div&gt;&lt;div&gt;Position&lt;/div&gt;&lt;div&gt;&lt;br&gt;&lt;/div&gt;&lt;div&gt;Experience&lt;/div&gt;" style="text;html=1;align=left;verticalAlign=top;whiteSpace=wrap;rounded=0;" vertex="1" parent="dWxuiOdJAfEmvHjb0iZS-6">
          <mxGeometry x="6" y="40" width="125" height="80" as="geometry" />
        </mxCell>
        <mxCell id="dWxuiOdJAfEmvHjb0iZS-15" value="Teams" style="swimlane;whiteSpace=wrap;html=1;" vertex="1" parent="1">
          <mxGeometry x="380" y="580" width="180" height="220" as="geometry" />
        </mxCell>
        <mxCell id="dWxuiOdJAfEmvHjb0iZS-16" value="&lt;u&gt;Team_ID&lt;/u&gt;" style="text;html=1;align=center;verticalAlign=middle;resizable=0;points=[];autosize=1;strokeColor=none;fillColor=none;" vertex="1" parent="dWxuiOdJAfEmvHjb0iZS-15">
          <mxGeometry x="2" y="39" width="70" height="30" as="geometry" />
        </mxCell>
        <mxCell id="dWxuiOdJAfEmvHjb0iZS-17" value="Rank" style="text;html=1;align=center;verticalAlign=middle;resizable=0;points=[];autosize=1;strokeColor=none;fillColor=none;" vertex="1" parent="dWxuiOdJAfEmvHjb0iZS-15">
          <mxGeometry x="10" y="100" width="50" height="30" as="geometry" />
        </mxCell>
        <mxCell id="dWxuiOdJAfEmvHjb0iZS-18" value="Name" style="text;html=1;align=center;verticalAlign=middle;resizable=0;points=[];autosize=1;strokeColor=none;fillColor=none;" vertex="1" parent="dWxuiOdJAfEmvHjb0iZS-15">
          <mxGeometry x="5" y="68" width="60" height="30" as="geometry" />
        </mxCell>
        <mxCell id="dWxuiOdJAfEmvHjb0iZS-19" value="Coach_ID" style="text;html=1;align=center;verticalAlign=middle;resizable=0;points=[];autosize=1;strokeColor=none;fillColor=none;" vertex="1" parent="dWxuiOdJAfEmvHjb0iZS-15">
          <mxGeometry x="5" y="130" width="80" height="30" as="geometry" />
        </mxCell>
        <mxCell id="dWxuiOdJAfEmvHjb0iZS-29" value="Location" style="text;html=1;align=center;verticalAlign=middle;whiteSpace=wrap;rounded=0;" vertex="1" parent="dWxuiOdJAfEmvHjb0iZS-15">
          <mxGeometry x="15" y="160" width="60" height="30" as="geometry" />
        </mxCell>
        <mxCell id="dWxuiOdJAfEmvHjb0iZS-51" value="" style="endArrow=none;dashed=1;html=1;rounded=0;" edge="1" parent="dWxuiOdJAfEmvHjb0iZS-15">
          <mxGeometry width="50" height="50" relative="1" as="geometry">
            <mxPoint x="17" y="157" as="sourcePoint" />
            <mxPoint x="75" y="157" as="targetPoint" />
          </mxGeometry>
        </mxCell>
        <mxCell id="dWxuiOdJAfEmvHjb0iZS-94" value="League" style="text;html=1;align=center;verticalAlign=middle;whiteSpace=wrap;rounded=0;" vertex="1" parent="dWxuiOdJAfEmvHjb0iZS-15">
          <mxGeometry x="14" y="186" width="60" height="30" as="geometry" />
        </mxCell>
        <mxCell id="dWxuiOdJAfEmvHjb0iZS-20" value="Coaches" style="swimlane;whiteSpace=wrap;html=1;" vertex="1" parent="1">
          <mxGeometry x="240" y="310" width="140" height="140" as="geometry" />
        </mxCell>
        <mxCell id="dWxuiOdJAfEmvHjb0iZS-50" value="" style="endArrow=none;dashed=1;html=1;rounded=0;" edge="1" parent="dWxuiOdJAfEmvHjb0iZS-20">
          <mxGeometry width="50" height="50" relative="1" as="geometry">
            <mxPoint x="12.5" y="67" as="sourcePoint" />
            <mxPoint x="57.5" y="67" as="targetPoint" />
          </mxGeometry>
        </mxCell>
        <mxCell id="HPNoxLTKmxxGLBRABfVi-5" value="Team_ID&lt;div&gt;&lt;u&gt;&lt;br&gt;&lt;/u&gt;&lt;/div&gt;&lt;div&gt;Role&lt;/div&gt;&lt;div&gt;&lt;br&gt;&lt;/div&gt;&lt;div&gt;Experience&lt;/div&gt;" style="text;html=1;align=left;verticalAlign=top;whiteSpace=wrap;rounded=0;" vertex="1" parent="dWxuiOdJAfEmvHjb0iZS-20">
          <mxGeometry x="7.5" y="43" width="125" height="80" as="geometry" />
        </mxCell>
        <mxCell id="dWxuiOdJAfEmvHjb0iZS-23" value="" style="endArrow=classic;html=1;rounded=0;exitX=0.5;exitY=1;exitDx=0;exitDy=0;entryX=0.5;entryY=0;entryDx=0;entryDy=0;" edge="1" parent="1" source="dWxuiOdJAfEmvHjb0iZS-6" target="dWxuiOdJAfEmvHjb0iZS-24">
          <mxGeometry width="50" height="50" relative="1" as="geometry">
            <mxPoint x="330" y="230" as="sourcePoint" />
            <mxPoint x="470" y="240" as="targetPoint" />
          </mxGeometry>
        </mxCell>
        <mxCell id="dWxuiOdJAfEmvHjb0iZS-24" value="plays at" style="rhombus;whiteSpace=wrap;html=1;" vertex="1" parent="1">
          <mxGeometry x="460" y="470" width="80" height="80" as="geometry" />
        </mxCell>
        <mxCell id="dWxuiOdJAfEmvHjb0iZS-25" value="" style="endArrow=none;html=1;rounded=0;entryX=1;entryY=0.5;entryDx=0;entryDy=0;exitX=1;exitY=0.5;exitDx=0;exitDy=0;" edge="1" parent="1" source="dWxuiOdJAfEmvHjb0iZS-15" target="dWxuiOdJAfEmvHjb0iZS-24">
          <mxGeometry width="50" height="50" relative="1" as="geometry">
            <mxPoint x="590" y="670" as="sourcePoint" />
            <mxPoint x="350" y="240" as="targetPoint" />
            <Array as="points">
              <mxPoint x="600" y="690" />
              <mxPoint x="600" y="510" />
            </Array>
          </mxGeometry>
        </mxCell>
        <mxCell id="dWxuiOdJAfEmvHjb0iZS-26" value="coaches" style="rhombus;whiteSpace=wrap;html=1;" vertex="1" parent="1">
          <mxGeometry x="260" y="490" width="80" height="80" as="geometry" />
        </mxCell>
        <mxCell id="dWxuiOdJAfEmvHjb0iZS-36" value="Games" style="swimlane;whiteSpace=wrap;html=1;" vertex="1" parent="1">
          <mxGeometry x="20" y="550" width="190" height="320" as="geometry" />
        </mxCell>
        <mxCell id="dWxuiOdJAfEmvHjb0iZS-55" value="&lt;u&gt;Game_ID&lt;/u&gt;" style="text;html=1;align=center;verticalAlign=middle;resizable=0;points=[];autosize=1;strokeColor=none;fillColor=none;" vertex="1" parent="dWxuiOdJAfEmvHjb0iZS-36">
          <mxGeometry x="5" y="25" width="70" height="30" as="geometry" />
        </mxCell>
        <mxCell id="dWxuiOdJAfEmvHjb0iZS-56" value="Start_Time" style="text;html=1;align=center;verticalAlign=middle;whiteSpace=wrap;rounded=0;" vertex="1" parent="dWxuiOdJAfEmvHjb0iZS-36">
          <mxGeometry x="10" y="54" width="70" height="30" as="geometry" />
        </mxCell>
        <mxCell id="dWxuiOdJAfEmvHjb0iZS-57" value="End_Time" style="text;html=1;align=center;verticalAlign=middle;whiteSpace=wrap;rounded=0;" vertex="1" parent="dWxuiOdJAfEmvHjb0iZS-36">
          <mxGeometry x="15" y="84" width="60" height="30" as="geometry" />
        </mxCell>
        <mxCell id="dWxuiOdJAfEmvHjb0iZS-58" value="Location" style="text;html=1;align=center;verticalAlign=middle;whiteSpace=wrap;rounded=0;" vertex="1" parent="dWxuiOdJAfEmvHjb0iZS-36">
          <mxGeometry x="10" y="114" width="60" height="30" as="geometry" />
        </mxCell>
        <mxCell id="dWxuiOdJAfEmvHjb0iZS-59" value="Referee" style="text;html=1;align=center;verticalAlign=middle;whiteSpace=wrap;rounded=0;" vertex="1" parent="dWxuiOdJAfEmvHjb0iZS-36">
          <mxGeometry x="10" y="144" width="60" height="30" as="geometry" />
        </mxCell>
        <mxCell id="dWxuiOdJAfEmvHjb0iZS-103" value="Home_Team_ID" style="text;strokeColor=none;fillColor=none;align=left;verticalAlign=middle;spacingLeft=4;spacingRight=4;overflow=hidden;points=[[0,0.5],[1,0.5]];portConstraint=eastwest;rotatable=0;whiteSpace=wrap;html=1;" vertex="1" parent="dWxuiOdJAfEmvHjb0iZS-36">
          <mxGeometry x="9" y="174" width="100" height="30" as="geometry" />
        </mxCell>
        <mxCell id="dWxuiOdJAfEmvHjb0iZS-104" value="Away_Team_ID" style="text;html=1;align=center;verticalAlign=middle;whiteSpace=wrap;rounded=0;" vertex="1" parent="dWxuiOdJAfEmvHjb0iZS-36">
          <mxGeometry x="5" y="204" width="100" height="30" as="geometry" />
        </mxCell>
        <mxCell id="dWxuiOdJAfEmvHjb0iZS-105" value="" style="endArrow=none;dashed=1;html=1;rounded=0;" edge="1" parent="dWxuiOdJAfEmvHjb0iZS-36">
          <mxGeometry width="50" height="50" relative="1" as="geometry">
            <mxPoint x="16" y="199" as="sourcePoint" />
            <mxPoint x="102" y="199" as="targetPoint" />
          </mxGeometry>
        </mxCell>
        <mxCell id="dWxuiOdJAfEmvHjb0iZS-106" value="" style="endArrow=none;dashed=1;html=1;rounded=0;" edge="1" parent="dWxuiOdJAfEmvHjb0iZS-36">
          <mxGeometry width="50" height="50" relative="1" as="geometry">
            <mxPoint x="15" y="233" as="sourcePoint" />
            <mxPoint x="95" y="233" as="targetPoint" />
          </mxGeometry>
        </mxCell>
        <mxCell id="dWxuiOdJAfEmvHjb0iZS-35" value="Score" style="text;strokeColor=none;fillColor=none;align=left;verticalAlign=middle;spacingLeft=4;spacingRight=4;overflow=hidden;points=[[0,0.5],[1,0.5]];portConstraint=eastwest;rotatable=0;whiteSpace=wrap;html=1;" vertex="1" parent="dWxuiOdJAfEmvHjb0iZS-36">
          <mxGeometry x="10" y="268" width="78" height="30" as="geometry" />
        </mxCell>
        <mxCell id="dWxuiOdJAfEmvHjb0iZS-34" value="Winner_ID" style="text;html=1;align=center;verticalAlign=middle;whiteSpace=wrap;rounded=0;" vertex="1" parent="dWxuiOdJAfEmvHjb0iZS-36">
          <mxGeometry x="10.975000000000001" y="234" width="58.5" height="40" as="geometry" />
        </mxCell>
        <mxCell id="dWxuiOdJAfEmvHjb0iZS-37" value="Goals" style="swimlane;whiteSpace=wrap;html=1;container=0;" vertex="1" parent="1">
          <mxGeometry x="570" y="790" width="200" height="160" as="geometry" />
        </mxCell>
        <mxCell id="dWxuiOdJAfEmvHjb0iZS-41" value="Time_Stamp" style="text;html=1;align=center;verticalAlign=middle;whiteSpace=wrap;rounded=0;container=0;" vertex="1" parent="dWxuiOdJAfEmvHjb0iZS-37">
          <mxGeometry x="4" y="125" width="80" height="30" as="geometry" />
        </mxCell>
        <mxCell id="dWxuiOdJAfEmvHjb0iZS-40" value="User_ID" style="text;html=1;align=center;verticalAlign=middle;whiteSpace=wrap;rounded=0;container=0;" vertex="1" parent="dWxuiOdJAfEmvHjb0iZS-37">
          <mxGeometry x="5" y="94" width="60" height="30" as="geometry" />
        </mxCell>
        <mxCell id="dWxuiOdJAfEmvHjb0iZS-44" value="" style="endArrow=none;dashed=1;html=1;rounded=0;" edge="1" parent="dWxuiOdJAfEmvHjb0iZS-37">
          <mxGeometry width="50" height="50" relative="1" as="geometry">
            <mxPoint x="14.5" y="121" as="sourcePoint" />
            <mxPoint x="59.5" y="121" as="targetPoint" />
          </mxGeometry>
        </mxCell>
        <mxCell id="dWxuiOdJAfEmvHjb0iZS-38" value="Game_ID" style="text;html=1;align=center;verticalAlign=middle;whiteSpace=wrap;rounded=0;container=0;" vertex="1" parent="dWxuiOdJAfEmvHjb0iZS-37">
          <mxGeometry x="6" y="69" width="60" height="30" as="geometry" />
        </mxCell>
        <mxCell id="dWxuiOdJAfEmvHjb0iZS-43" value="" style="endArrow=none;dashed=1;html=1;rounded=0;" edge="1" parent="dWxuiOdJAfEmvHjb0iZS-37">
          <mxGeometry width="50" height="50" relative="1" as="geometry">
            <mxPoint x="13" y="94" as="sourcePoint" />
            <mxPoint x="58" y="94" as="targetPoint" />
          </mxGeometry>
        </mxCell>
        <mxCell id="dWxuiOdJAfEmvHjb0iZS-48" value="&lt;u&gt;Goal ID&lt;/u&gt;" style="text;html=1;align=center;verticalAlign=middle;whiteSpace=wrap;rounded=0;" vertex="1" parent="dWxuiOdJAfEmvHjb0iZS-37">
          <mxGeometry y="40" width="60" height="30" as="geometry" />
        </mxCell>
        <mxCell id="dWxuiOdJAfEmvHjb0iZS-60" value="Referees" style="swimlane;whiteSpace=wrap;html=1;" vertex="1" parent="1">
          <mxGeometry x="30" y="310" width="130" height="100" as="geometry" />
        </mxCell>
        <mxCell id="dWxuiOdJAfEmvHjb0iZS-73" value="Experience" style="text;html=1;align=center;verticalAlign=middle;resizable=0;points=[];autosize=1;strokeColor=none;fillColor=none;" vertex="1" parent="dWxuiOdJAfEmvHjb0iZS-60">
          <mxGeometry y="35" width="80" height="30" as="geometry" />
        </mxCell>
        <mxCell id="dWxuiOdJAfEmvHjb0iZS-65" value="Fans" style="swimlane;whiteSpace=wrap;html=1;" vertex="1" parent="1">
          <mxGeometry x="650" y="310" width="140" height="80" as="geometry" />
        </mxCell>
        <mxCell id="dWxuiOdJAfEmvHjb0iZS-79" value="" style="group" vertex="1" connectable="0" parent="1">
          <mxGeometry x="361" y="-10" width="149" height="180" as="geometry" />
        </mxCell>
        <mxCell id="dWxuiOdJAfEmvHjb0iZS-64" value="Users" style="swimlane;whiteSpace=wrap;html=1;" vertex="1" parent="dWxuiOdJAfEmvHjb0iZS-79">
          <mxGeometry x="9" width="140" height="180" as="geometry" />
        </mxCell>
        <mxCell id="HPNoxLTKmxxGLBRABfVi-3" value="&lt;u&gt;User_ID&lt;/u&gt;&lt;div&gt;&lt;u&gt;&lt;br&gt;&lt;/u&gt;&lt;/div&gt;&lt;div&gt;Email&lt;/div&gt;&lt;div&gt;&lt;br&gt;&lt;/div&gt;&lt;div&gt;Full_Name&lt;/div&gt;&lt;div&gt;&lt;br&gt;&lt;/div&gt;&lt;div&gt;Date_Created&lt;/div&gt;&lt;div&gt;&lt;br&gt;&lt;/div&gt;&lt;div&gt;Age&lt;/div&gt;" style="text;html=1;align=left;verticalAlign=top;whiteSpace=wrap;rounded=0;" vertex="1" parent="dWxuiOdJAfEmvHjb0iZS-64">
          <mxGeometry x="7" y="30" width="125" height="150" as="geometry" />
        </mxCell>
        <mxCell id="dWxuiOdJAfEmvHjb0iZS-81" value="" style="group" vertex="1" connectable="0" parent="1">
          <mxGeometry x="400" y="180" width="80" height="60" as="geometry" />
        </mxCell>
        <mxCell id="dWxuiOdJAfEmvHjb0iZS-66" value="" style="triangle;whiteSpace=wrap;html=1;rotation=-90;" vertex="1" parent="dWxuiOdJAfEmvHjb0iZS-81">
          <mxGeometry x="10" y="-10" width="60" height="80" as="geometry" />
        </mxCell>
        <mxCell id="dWxuiOdJAfEmvHjb0iZS-80" value="IS A" style="text;html=1;align=center;verticalAlign=middle;whiteSpace=wrap;rounded=0;" vertex="1" parent="dWxuiOdJAfEmvHjb0iZS-81">
          <mxGeometry x="10" y="20" width="60" height="30" as="geometry" />
        </mxCell>
        <mxCell id="dWxuiOdJAfEmvHjb0iZS-83" value="" style="endArrow=none;html=1;rounded=0;entryX=0.5;entryY=1;entryDx=0;entryDy=0;exitX=1;exitY=0.5;exitDx=0;exitDy=0;" edge="1" parent="1" source="dWxuiOdJAfEmvHjb0iZS-66" target="dWxuiOdJAfEmvHjb0iZS-64">
          <mxGeometry width="50" height="50" relative="1" as="geometry">
            <mxPoint x="400" y="220" as="sourcePoint" />
            <mxPoint x="450" y="170" as="targetPoint" />
          </mxGeometry>
        </mxCell>
        <mxCell id="dWxuiOdJAfEmvHjb0iZS-84" value="" style="endArrow=none;html=1;rounded=0;entryX=0;entryY=0.5;entryDx=0;entryDy=0;" edge="1" parent="1" source="dWxuiOdJAfEmvHjb0iZS-60" target="dWxuiOdJAfEmvHjb0iZS-66">
          <mxGeometry width="50" height="50" relative="1" as="geometry">
            <mxPoint x="400" y="220" as="sourcePoint" />
            <mxPoint x="430" y="240" as="targetPoint" />
          </mxGeometry>
        </mxCell>
        <mxCell id="dWxuiOdJAfEmvHjb0iZS-86" value="" style="endArrow=none;html=1;rounded=0;entryX=0.5;entryY=0;entryDx=0;entryDy=0;exitX=0;exitY=0.5;exitDx=0;exitDy=0;" edge="1" parent="1" source="dWxuiOdJAfEmvHjb0iZS-66" target="dWxuiOdJAfEmvHjb0iZS-6">
          <mxGeometry width="50" height="50" relative="1" as="geometry">
            <mxPoint x="400" y="220" as="sourcePoint" />
            <mxPoint x="450" y="170" as="targetPoint" />
          </mxGeometry>
        </mxCell>
        <mxCell id="dWxuiOdJAfEmvHjb0iZS-87" value="" style="endArrow=none;html=1;rounded=0;exitX=0.5;exitY=0;exitDx=0;exitDy=0;entryX=0;entryY=0.5;entryDx=0;entryDy=0;" edge="1" parent="1" source="dWxuiOdJAfEmvHjb0iZS-20" target="dWxuiOdJAfEmvHjb0iZS-66">
          <mxGeometry width="50" height="50" relative="1" as="geometry">
            <mxPoint x="400" y="220" as="sourcePoint" />
            <mxPoint x="450" y="170" as="targetPoint" />
          </mxGeometry>
        </mxCell>
        <mxCell id="dWxuiOdJAfEmvHjb0iZS-88" value="" style="endArrow=none;html=1;rounded=0;exitX=0.593;exitY=0;exitDx=0;exitDy=0;exitPerimeter=0;entryX=0;entryY=0.5;entryDx=0;entryDy=0;" edge="1" parent="1" source="dWxuiOdJAfEmvHjb0iZS-65" target="dWxuiOdJAfEmvHjb0iZS-66">
          <mxGeometry width="50" height="50" relative="1" as="geometry">
            <mxPoint x="400" y="220" as="sourcePoint" />
            <mxPoint x="450" y="170" as="targetPoint" />
          </mxGeometry>
        </mxCell>
        <mxCell id="dWxuiOdJAfEmvHjb0iZS-89" value="OVERLAPS" style="text;html=1;align=center;verticalAlign=middle;whiteSpace=wrap;rounded=0;" vertex="1" parent="1">
          <mxGeometry x="405.5" y="252" width="60" height="30" as="geometry" />
        </mxCell>
        <mxCell id="dWxuiOdJAfEmvHjb0iZS-92" value="" style="endArrow=classic;html=1;rounded=0;entryX=1;entryY=0.5;entryDx=0;entryDy=0;exitX=0;exitY=0.5;exitDx=0;exitDy=0;" edge="1" parent="1" source="dWxuiOdJAfEmvHjb0iZS-15" target="dWxuiOdJAfEmvHjb0iZS-26">
          <mxGeometry width="50" height="50" relative="1" as="geometry">
            <mxPoint x="400" y="620" as="sourcePoint" />
            <mxPoint x="450" y="570" as="targetPoint" />
            <Array as="points">
              <mxPoint x="340" y="690" />
            </Array>
          </mxGeometry>
        </mxCell>
        <mxCell id="dWxuiOdJAfEmvHjb0iZS-96" value="" style="endArrow=none;html=1;rounded=0;entryX=0;entryY=0.5;entryDx=0;entryDy=0;exitX=0;exitY=0.5;exitDx=0;exitDy=0;strokeWidth=3;" edge="1" parent="1" source="dWxuiOdJAfEmvHjb0iZS-26" target="dWxuiOdJAfEmvHjb0iZS-20">
          <mxGeometry width="50" height="50" relative="1" as="geometry">
            <mxPoint x="400" y="620" as="sourcePoint" />
            <mxPoint x="450" y="570" as="targetPoint" />
            <Array as="points">
              <mxPoint x="190" y="530" />
              <mxPoint x="190" y="380" />
            </Array>
          </mxGeometry>
        </mxCell>
        <mxCell id="dWxuiOdJAfEmvHjb0iZS-97" value="fan of" style="rhombus;whiteSpace=wrap;html=1;" vertex="1" parent="1">
          <mxGeometry x="680" y="540" width="80" height="80" as="geometry" />
        </mxCell>
        <mxCell id="dWxuiOdJAfEmvHjb0iZS-98" value="" style="endArrow=none;html=1;rounded=0;entryX=0.5;entryY=1;entryDx=0;entryDy=0;exitX=0.5;exitY=0;exitDx=0;exitDy=0;" edge="1" parent="1" source="dWxuiOdJAfEmvHjb0iZS-97" target="dWxuiOdJAfEmvHjb0iZS-65">
          <mxGeometry width="50" height="50" relative="1" as="geometry">
            <mxPoint x="400" y="620" as="sourcePoint" />
            <mxPoint x="450" y="570" as="targetPoint" />
          </mxGeometry>
        </mxCell>
        <mxCell id="dWxuiOdJAfEmvHjb0iZS-99" value="" style="endArrow=none;html=1;rounded=0;entryX=0.5;entryY=1;entryDx=0;entryDy=0;exitX=1;exitY=0.75;exitDx=0;exitDy=0;" edge="1" parent="1" source="dWxuiOdJAfEmvHjb0iZS-15" target="dWxuiOdJAfEmvHjb0iZS-97">
          <mxGeometry width="50" height="50" relative="1" as="geometry">
            <mxPoint x="400" y="620" as="sourcePoint" />
            <mxPoint x="450" y="570" as="targetPoint" />
            <Array as="points">
              <mxPoint x="720" y="745" />
            </Array>
          </mxGeometry>
        </mxCell>
        <mxCell id="dWxuiOdJAfEmvHjb0iZS-111" value="plays" style="rhombus;whiteSpace=wrap;html=1;" vertex="1" parent="1">
          <mxGeometry x="240" y="705" width="80" height="80" as="geometry" />
        </mxCell>
        <mxCell id="GzQAfSoRJYZdRZqtKskn-2" value="" style="endArrow=none;html=1;rounded=0;exitX=1;exitY=0.5;exitDx=0;exitDy=0;entryX=0;entryY=0.75;entryDx=0;entryDy=0;" edge="1" parent="1" source="dWxuiOdJAfEmvHjb0iZS-111" target="dWxuiOdJAfEmvHjb0iZS-15">
          <mxGeometry width="50" height="50" relative="1" as="geometry">
            <mxPoint x="400" y="620" as="sourcePoint" />
            <mxPoint x="450" y="570" as="targetPoint" />
          </mxGeometry>
        </mxCell>
        <mxCell id="GzQAfSoRJYZdRZqtKskn-3" value="2" style="text;html=1;align=center;verticalAlign=middle;whiteSpace=wrap;rounded=0;" vertex="1" parent="1">
          <mxGeometry x="340" y="720" width="60" height="30" as="geometry" />
        </mxCell>
        <mxCell id="GzQAfSoRJYZdRZqtKskn-5" value="" style="endArrow=classic;html=1;rounded=0;entryX=0.5;entryY=0;entryDx=0;entryDy=0;exitX=1;exitY=0.25;exitDx=0;exitDy=0;" edge="1" parent="1" source="dWxuiOdJAfEmvHjb0iZS-36" target="dWxuiOdJAfEmvHjb0iZS-111">
          <mxGeometry width="50" height="50" relative="1" as="geometry">
            <mxPoint x="400" y="620" as="sourcePoint" />
            <mxPoint x="450" y="570" as="targetPoint" />
            <Array as="points">
              <mxPoint x="280" y="630" />
            </Array>
          </mxGeometry>
        </mxCell>
        <mxCell id="GzQAfSoRJYZdRZqtKskn-6" value="was scored&lt;br&gt;during" style="rhombus;whiteSpace=wrap;html=1;" vertex="1" parent="1">
          <mxGeometry x="380" y="830" width="80" height="80" as="geometry" />
        </mxCell>
        <mxCell id="GzQAfSoRJYZdRZqtKskn-7" value="" style="endArrow=none;html=1;rounded=0;entryX=1;entryY=0.5;entryDx=0;entryDy=0;exitX=0;exitY=0.5;exitDx=0;exitDy=0;" edge="1" parent="1" source="GzQAfSoRJYZdRZqtKskn-6" target="dWxuiOdJAfEmvHjb0iZS-36">
          <mxGeometry width="50" height="50" relative="1" as="geometry">
            <mxPoint x="330" y="890" as="sourcePoint" />
            <mxPoint x="450" y="670" as="targetPoint" />
            <Array as="points">
              <mxPoint x="260" y="870" />
            </Array>
          </mxGeometry>
        </mxCell>
        <mxCell id="GzQAfSoRJYZdRZqtKskn-8" value="" style="endArrow=classic;html=1;rounded=0;exitX=0;exitY=0.5;exitDx=0;exitDy=0;entryX=1;entryY=0.5;entryDx=0;entryDy=0;" edge="1" parent="1" source="dWxuiOdJAfEmvHjb0iZS-37" target="GzQAfSoRJYZdRZqtKskn-6">
          <mxGeometry width="50" height="50" relative="1" as="geometry">
            <mxPoint x="400" y="820" as="sourcePoint" />
            <mxPoint x="450" y="770" as="targetPoint" />
          </mxGeometry>
        </mxCell>
        <mxCell id="GzQAfSoRJYZdRZqtKskn-9" value="scored" style="rhombus;whiteSpace=wrap;html=1;" vertex="1" parent="1">
          <mxGeometry x="630" y="650" width="80" height="80" as="geometry" />
        </mxCell>
        <mxCell id="GzQAfSoRJYZdRZqtKskn-11" value="" style="endArrow=none;html=1;rounded=0;entryX=1;entryY=0.5;entryDx=0;entryDy=0;exitX=0.5;exitY=0;exitDx=0;exitDy=0;" edge="1" parent="1" source="GzQAfSoRJYZdRZqtKskn-9" target="dWxuiOdJAfEmvHjb0iZS-6">
          <mxGeometry width="50" height="50" relative="1" as="geometry">
            <mxPoint x="400" y="520" as="sourcePoint" />
            <mxPoint x="450" y="470" as="targetPoint" />
            <Array as="points">
              <mxPoint x="670" y="490" />
              <mxPoint x="630" y="490" />
              <mxPoint x="630" y="385" />
            </Array>
          </mxGeometry>
        </mxCell>
        <mxCell id="GzQAfSoRJYZdRZqtKskn-12" value="" style="endArrow=classic;html=1;rounded=0;exitX=0.5;exitY=0;exitDx=0;exitDy=0;entryX=0.5;entryY=1;entryDx=0;entryDy=0;" edge="1" parent="1" source="dWxuiOdJAfEmvHjb0iZS-37" target="GzQAfSoRJYZdRZqtKskn-9">
          <mxGeometry width="50" height="50" relative="1" as="geometry">
            <mxPoint x="400" y="820" as="sourcePoint" />
            <mxPoint x="450" y="770" as="targetPoint" />
          </mxGeometry>
        </mxCell>
        <mxCell id="GzQAfSoRJYZdRZqtKskn-14" value="referee of" style="rhombus;whiteSpace=wrap;html=1;" vertex="1" parent="1">
          <mxGeometry x="55" y="440" width="80" height="80" as="geometry" />
        </mxCell>
        <mxCell id="GzQAfSoRJYZdRZqtKskn-15" value="" style="endArrow=none;html=1;rounded=0;entryX=0.5;entryY=1;entryDx=0;entryDy=0;exitX=0.5;exitY=0;exitDx=0;exitDy=0;strokeWidth=3;" edge="1" parent="1" source="GzQAfSoRJYZdRZqtKskn-14" target="dWxuiOdJAfEmvHjb0iZS-60">
          <mxGeometry width="50" height="50" relative="1" as="geometry">
            <mxPoint x="400" y="520" as="sourcePoint" />
            <mxPoint x="450" y="470" as="targetPoint" />
          </mxGeometry>
        </mxCell>
        <mxCell id="GzQAfSoRJYZdRZqtKskn-16" value="" style="endArrow=none;html=1;rounded=0;entryX=0.5;entryY=1;entryDx=0;entryDy=0;exitX=0.5;exitY=0;exitDx=0;exitDy=0;strokeWidth=3;" edge="1" parent="1" source="dWxuiOdJAfEmvHjb0iZS-36" target="GzQAfSoRJYZdRZqtKskn-14">
          <mxGeometry width="50" height="50" relative="1" as="geometry">
            <mxPoint x="5" y="570" as="sourcePoint" />
            <mxPoint x="55" y="520" as="targetPoint" />
          </mxGeometry>
        </mxCell>
        <mxCell id="GzQAfSoRJYZdRZqtKskn-17" value="Season" style="text;html=1;align=center;verticalAlign=middle;resizable=0;points=[];autosize=1;strokeColor=none;fillColor=none;" vertex="1" parent="1">
          <mxGeometry x="24" y="842" width="60" height="30" as="geometry" />
        </mxCell>
        <mxCell id="GzQAfSoRJYZdRZqtKskn-18" value="Penalties" style="swimlane;whiteSpace=wrap;html=1;" vertex="1" parent="1">
          <mxGeometry x="20" y="913" width="170" height="170" as="geometry" />
        </mxCell>
        <mxCell id="GzQAfSoRJYZdRZqtKskn-19" value="&lt;u&gt;Penalty_ID&lt;/u&gt;" style="text;html=1;align=center;verticalAlign=middle;whiteSpace=wrap;rounded=0;" vertex="1" parent="GzQAfSoRJYZdRZqtKskn-18">
          <mxGeometry x="8" y="34" width="60" height="30" as="geometry" />
        </mxCell>
        <mxCell id="GzQAfSoRJYZdRZqtKskn-20" value="User_ID" style="text;html=1;align=center;verticalAlign=middle;whiteSpace=wrap;rounded=0;container=0;" vertex="1" parent="GzQAfSoRJYZdRZqtKskn-18">
          <mxGeometry x="5" y="89" width="60" height="30" as="geometry" />
        </mxCell>
        <mxCell id="GzQAfSoRJYZdRZqtKskn-21" value="" style="endArrow=none;dashed=1;html=1;rounded=0;" edge="1" parent="GzQAfSoRJYZdRZqtKskn-18">
          <mxGeometry width="50" height="50" relative="1" as="geometry">
            <mxPoint x="12.5" y="116" as="sourcePoint" />
            <mxPoint x="57.5" y="116" as="targetPoint" />
          </mxGeometry>
        </mxCell>
        <mxCell id="GzQAfSoRJYZdRZqtKskn-22" value="Game_ID" style="text;html=1;align=center;verticalAlign=middle;whiteSpace=wrap;rounded=0;container=0;" vertex="1" parent="GzQAfSoRJYZdRZqtKskn-18">
          <mxGeometry x="5" y="62" width="60" height="30" as="geometry" />
        </mxCell>
        <mxCell id="GzQAfSoRJYZdRZqtKskn-23" value="" style="endArrow=none;dashed=1;html=1;rounded=0;" edge="1" parent="GzQAfSoRJYZdRZqtKskn-18">
          <mxGeometry width="50" height="50" relative="1" as="geometry">
            <mxPoint x="10" y="89" as="sourcePoint" />
            <mxPoint x="55" y="89" as="targetPoint" />
          </mxGeometry>
        </mxCell>
        <mxCell id="GzQAfSoRJYZdRZqtKskn-24" value="Time_Stamp" style="text;html=1;align=center;verticalAlign=middle;whiteSpace=wrap;rounded=0;container=0;" vertex="1" parent="GzQAfSoRJYZdRZqtKskn-18">
          <mxGeometry x="5" y="119" width="80" height="30" as="geometry" />
        </mxCell>
        <mxCell id="GzQAfSoRJYZdRZqtKskn-25" value="happened during" style="rhombus;whiteSpace=wrap;html=1;" vertex="1" parent="1">
          <mxGeometry x="281" y="958" width="80" height="80" as="geometry" />
        </mxCell>
        <mxCell id="GzQAfSoRJYZdRZqtKskn-26" value="" style="endArrow=classic;html=1;rounded=0;exitX=1;exitY=0.5;exitDx=0;exitDy=0;entryX=0;entryY=0.5;entryDx=0;entryDy=0;" edge="1" parent="1" source="GzQAfSoRJYZdRZqtKskn-18" target="GzQAfSoRJYZdRZqtKskn-25">
          <mxGeometry width="50" height="50" relative="1" as="geometry">
            <mxPoint x="400" y="800" as="sourcePoint" />
            <mxPoint x="450" y="750" as="targetPoint" />
          </mxGeometry>
        </mxCell>
        <mxCell id="GzQAfSoRJYZdRZqtKskn-27" value="" style="endArrow=none;html=1;rounded=0;exitX=0.5;exitY=0;exitDx=0;exitDy=0;entryX=1;entryY=0.75;entryDx=0;entryDy=0;" edge="1" parent="1" source="GzQAfSoRJYZdRZqtKskn-25" target="dWxuiOdJAfEmvHjb0iZS-36">
          <mxGeometry width="50" height="50" relative="1" as="geometry">
            <mxPoint x="400" y="800" as="sourcePoint" />
            <mxPoint x="450" y="750" as="targetPoint" />
            <Array as="points">
              <mxPoint x="320" y="910" />
              <mxPoint x="230" y="910" />
            </Array>
          </mxGeometry>
        </mxCell>
        <mxCell id="GzQAfSoRJYZdRZqtKskn-28" value="happened&lt;br&gt;by" style="rhombus;whiteSpace=wrap;html=1;" vertex="1" parent="1">
          <mxGeometry x="434" y="1000" width="80" height="80" as="geometry" />
        </mxCell>
        <mxCell id="GzQAfSoRJYZdRZqtKskn-30" value="" style="endArrow=classic;html=1;rounded=0;exitX=1;exitY=0.75;exitDx=0;exitDy=0;entryX=0;entryY=0.5;entryDx=0;entryDy=0;" edge="1" parent="1" source="GzQAfSoRJYZdRZqtKskn-18" target="GzQAfSoRJYZdRZqtKskn-28">
          <mxGeometry width="50" height="50" relative="1" as="geometry">
            <mxPoint x="400" y="800" as="sourcePoint" />
            <mxPoint x="450" y="750" as="targetPoint" />
          </mxGeometry>
        </mxCell>
        <mxCell id="GzQAfSoRJYZdRZqtKskn-31" value="" style="endArrow=none;html=1;rounded=0;exitX=1;exitY=0.5;exitDx=0;exitDy=0;entryX=1;entryY=0.75;entryDx=0;entryDy=0;" edge="1" parent="1" source="GzQAfSoRJYZdRZqtKskn-28" target="dWxuiOdJAfEmvHjb0iZS-6">
          <mxGeometry width="50" height="50" relative="1" as="geometry">
            <mxPoint x="400" y="800" as="sourcePoint" />
            <mxPoint x="790" y="440" as="targetPoint" />
            <Array as="points">
              <mxPoint x="800" y="1040" />
              <mxPoint x="800" y="423" />
            </Array>
          </mxGeometry>
        </mxCell>
      </root>
    </mxGraphModel>
  </diagram>
</mxfile>
